<?xml version="1.0" encoding="utf-8"?>
<!-- Generator: Adobe Illustrator 22.0.1, SVG Export Plug-In . SVG Version: 6.00 Build 0)  -->
<svg version="1.1" id="Layer_1" xmlns="http://www.w3.org/2000/svg" xmlns:xlink="http://www.w3.org/1999/xlink" x="0px" y="0px"
	 viewBox="0 0 132.3 200" style="enable-background:new 0 0 132.3 200;" xml:space="preserve">
<style type="text/css">
	.st0{fill:#49CE8E;}
</style>
<path id="ic_drop_marker_inactive" class="st0" d="M109.3,68.2c0.4,24.4-19.1,44.4-43.4,44.8c-24.4-0.4-43.8-20.5-43.4-44.8
	c-0.4-24.4,19.1-44.4,43.4-44.8C90.2,23.8,109.7,43.9,109.3,68.2z M65.9,1C30,1,0.7,31.2,0.7,68.2v0.5c-0.1,17.7,6.8,34.8,19.1,47.6
	l5.6,5.8c19.2,19.9,31.7,45.3,35.7,72.7c0.3,2.6,2.7,4.5,5.3,4.2c2.2-0.3,3.9-2,4.2-4.2c4-27.4,16.5-52.8,35.7-72.7l5.6-5.8
	c12.3-12.8,19.2-29.8,19.1-47.6v-0.5C131,31.2,101.8,1,65.9,1z M65.9,120.5c-27.9,0-50.7-23.5-50.7-52.3s22.7-52.3,50.7-52.3
	s50.7,23.5,50.7,52.3S93.8,120.5,65.9,120.5z"/>
</svg>
