<?xml version="1.0" encoding="utf-8"?>
<!-- Generator: Adobe Illustrator 22.0.1, SVG Export Plug-In . SVG Version: 6.00 Build 0)  -->
<svg version="1.1" id="Layer_1" xmlns="http://www.w3.org/2000/svg" xmlns:xlink="http://www.w3.org/1999/xlink" x="0px" y="0px"
	 viewBox="0 0 48.7 74.6" style="enable-background:new 0 0 48.7 74.6;" xml:space="preserve">
<style type="text/css">
	.st0{fill:#3A3A3A;}
</style>
<path class="st0" d="M41.4,43.5l-2.1,2.1c-7.1,7.3-11.6,16.6-13.2,26.8c-0.1,0.9-0.9,1.6-1.8,1.6c-0.9,0-1.6-0.7-1.8-1.6
	c-1.5-10.2-6.1-19.5-13.2-26.8l-2.1-2.1c-4.5-4.7-7-10.9-7-17.5v-0.2C0.5,12.1,11.2,1,24.5,1s24,11.1,24,24.8V26
	C48.5,32.6,46,38.8,41.4,43.5z M24.5,6.5c-10.3,0-18.7,8.6-18.7,19.3s8.4,19.3,18.7,19.3s18.7-8.6,18.7-19.3S34.8,6.5,24.5,6.5z
	 M24.5,42.3c-8.8,0-16-7.4-16-16.5c0-9.1,7.2-16.5,16-16.5s16,7.4,16,16.5C40.5,34.9,33.3,42.3,24.5,42.3z"/>
</svg>
