<?xml version="1.0" encoding="utf-8"?>
<!-- Generator: Adobe Illustrator 22.0.1, SVG Export Plug-In . SVG Version: 6.00 Build 0)  -->
<svg version="1.1" id="Layer_1" xmlns="http://www.w3.org/2000/svg" xmlns:xlink="http://www.w3.org/1999/xlink" x="0px" y="0px"
	 viewBox="0 0 49.7 82" style="enable-background:new 0 0 49.7 82;" xml:space="preserve">
<style type="text/css">
	.st0{fill:#49CE8E;}
</style>
<path class="st0" d="M41.8,43.6l-2.1,2.1C32.7,53,28.1,62.3,26.6,72.5c-0.1,0.9-0.9,1.6-1.8,1.6c-0.9,0-1.6-0.7-1.8-1.6
	C21.6,62.3,17,53,9.9,45.7l-2.1-2.1c-4.5-4.7-7-10.9-7-17.6v-0.2C0.8,12.1,11.6,1,24.8,1s24,11.1,24,24.8V26
	C48.8,32.6,46.3,38.9,41.8,43.6z M24.8,6.5c-10.3,0-18.7,8.7-18.7,19.3c0,10.6,8.4,19.3,18.7,19.3c10.3,0,18.7-8.7,18.7-19.3
	C43.5,15.2,35.1,6.5,24.8,6.5z M18.6,65.2c0.3,0.9,0.5,1.8,0.8,2.7c-3.8,1-6.5,2.9-6.5,4.9c0,2.6,4.9,5.5,12,5.5s12-2.9,12-5.5
	c0-2-2.7-3.9-6.5-4.9c0.2-0.9,0.5-1.8,0.8-2.7c5.1,1.3,8.4,4.2,8.4,7.5c0,4.6-6.4,8.3-14.7,8.3s-14.7-3.6-14.7-8.3
	C10.2,69.4,13.5,66.5,18.6,65.2z"/>
<path class="st0" d="M40.1,23.6l-5,4.8c-0.6,0.5-0.8,1.3-0.7,2.1l1.2,6.7c0.3,1.9-1.7,3.4-3.5,2.5L26,36.5c-0.7-0.4-1.5-0.4-2.2,0
	l-6.2,3.2c-1.8,0.9-3.8-0.6-3.5-2.5l1.2-6.7c0.1-0.8-0.1-1.5-0.7-2.1l-5-4.8c-1.4-1.4-0.6-3.7,1.3-4l6.9-1c0.8-0.1,1.5-0.6,1.8-1.3
	l3.1-6.1c0.9-1.7,3.4-1.7,4.3,0l3.1,6.1c0.3,0.7,1,1.2,1.8,1.3l6.9,1C40.7,19.9,41.5,22.3,40.1,23.6z M34.7,25.6
	c-0.4-0.7-3.1-6.6-3.1-6.6H18.1L15,25.6c-0.2,0.6,0,1.1,0,1.1c0.2,0.6,0.5,0.7,1.2,0.7c0.2,0,0.4,0,0.6-0.1V35h8.2v-4.6H30V35H33
	v-7.6c0.2,0.1,0.4,0.1,0.6,0.1c0.6,0,1-0.5,1.1-0.8C34.7,26.7,35,26,34.7,25.6z M32.5,26.6L32.5,26.6c0,0.6-0.5,0.9-1.1,0.9
	c-0.6,0-1.1-0.4-1.1-0.8v-0.1v-0.9l-1.7-5.3h1.7l2.1,5.3L32.5,26.6L32.5,26.6L32.5,26.6z M27,27.5c-0.6,0-1.1-0.4-1.1-0.8v-0.1v-0.9
	l-0.4-5.3h1.7l0.9,5.3v1c0,0,0,0,0,0C28.1,27.1,27.6,27.5,27,27.5z M23.7,26.6L23.7,26.6c0,0.6-0.5,0.9-1.1,0.9
	c-0.6,0-1.1-0.4-1.1-0.8v-0.1v-0.9l0.9-5.3h1.7l-0.4,5.3V26.6z M18.5,29.4h2.8v2.7h-2.8V29.4z M19.3,26.7L19.3,26.7
	c0,0.5-0.5,0.8-1.1,0.8s-1.1-0.4-1.1-0.8v-0.1h0v-0.9l2.1-5.3H21l-1.7,5.3V26.7z"/>
</svg>
