<?xml version="1.0" encoding="utf-8"?>
<!-- Generator: Adobe Illustrator 23.0.6, SVG Export Plug-In . SVG Version: 6.00 Build 0)  -->
<svg version="1.1" id="Layer_1" xmlns="http://www.w3.org/2000/svg" xmlns:xlink="http://www.w3.org/1999/xlink" x="0px" y="0px"
	 viewBox="0 0 190 200" style="enable-background:new 0 0 190 200;" xml:space="preserve">
<path d="M134.9,22.9L154.7,3H98.4h-3.3h-3.3v63h6.6V42.8h56.4L134.9,22.9z"/>
<path d="M51,164.5l-17.6,17.6l4.7,5.8l48.9-48.9H30.8l-0.2,0.5L51,159.8C52.3,161.1,52.3,163.2,51,164.5L51,164.5z"/>
<path d="M96.4,138.9l-5,5l43.4,43.4l11.9-11.9l-36.5-36.5H96.4z"/>
<path d="M158.7,143.6l-2.6-4.7h-36.5l21.8,21.8L158.7,143.6z"/>
<path d="M44,162.1l-16.5-16.5l-9.1,18.1l10.8,13.2L44,162.1z"/>
<path d="M162,149.6l-15.8,15.8l33.2,33.2h9.6L162,149.6z"/>
<path d="M42.3,193l4.6,5.6h76.6l6.6-6.6l-43.4-43.4L42.3,193z"/>
<path d="M1,198.6h37.4l-23.2-28.4L1,198.6z"/>
<path d="M132.9,198.6h37l-18.5-18.5L132.9,198.6z"/>
<path d="M95.1,123l12.1-18.1c2.9-4.4,4.5-9.5,4.5-14.9v-0.8c0-4.5-1.8-8.7-5-11.9c-3.1-3-7.2-4.7-11.5-4.7c-0.2,0-0.3,0-0.5,0
	c-8.9,0.3-16.1,8.1-16.1,17.4c0,5.3,1.6,10.4,4.5,14.9L95.1,123z M95.1,79.3c5.5,0,9.9,4.5,9.9,9.9c0,5.5-4.5,9.9-9.9,9.9
	c-5.5,0-9.9-4.5-9.9-9.9C85.1,83.7,89.6,79.3,95.1,79.3z"/>
<circle cx="95.1" cy="89.2" r="3.3"/>
</svg>
